Patient4_TMGait_0pt7_01_right_31_EMG.mot
version=1
nRows=33
nColumns=33
inDegrees=no
endheader
time	1LAddLong	2LGlutMax	3LGlutMed	4LIliopsoas	5LSemiMemb	6LBicFemLong	7LRecFem	8LVastMed	9LVastLat	10LGasMed	11LTibAnt	12lTibPost	13LPeroneusLong	14LSol	15LExtDigLong	16LFlexDigLong	17RAddLong	18RGlutMax	19RGlutMed	20RIliopsoas	21RSemiMemb	22RBicFemLong	23RRecFem	24RVastMed	25RVastLat	26RGasMed	27RTibAnt	28RTibPost	29RPeroneusLong	30RSol	31RExtDigLong	32RFlexDigLong
36.435	0.017395	-0.18112	0.16129	0.051422	0.002136	0.2214	-0.21988	0.046387	-0.26367	-0.085754	0.024261	0.003662	0.10574	-0.26032	-0.25543	0.002441	0.015564	-0.20752	0.14069	-0.084686	-0.010376	0.75668	-0.11993	-0.17136	-0.018311	-0.006104	-0.38071	-0.001373	-0.081635	-0.043945	-0.00061	0.009155
36.436	0.016785	-0.13229	0.031433	0.050201	0.037994	-0.061951	-0.4071	0.027771	-0.19272	-0.12009	-0.24689	-0.00351	0.68802	-0.18555	0.26825	0.013733	-0.09903	-0.053864	-0.013428	0.063171	0.084839	0.91156	-0.096588	-0.11322	0.016785	0.002899	-0.46143	0.000763	-0.033722	-0.079803	-0.001526	0.012207
36.437	0.028076	-0.1207	0.066071	0.019836	0.03891	-0.3949	-0.50491	0.00412	-0.011292	-0.002594	-0.22232	-0.009155	-0.64987	-0.099945	-0.060272	0.013885	-0.11673	0.000916	-0.032501	0.17105	0.23392	0.91904	0.067444	-0.13992	-0.007019	0.010834	-0.48981	0.000305	-0.025024	-0.10452	0.00473	0.010834
36.438	0.021362	-0.099487	0.11002	0.024414	0.04303	-0.77911	-0.28824	-0.042725	0.028381	0.25146	-0.055237	-0.007782	-0.82748	0.17548	-0.17166	0.005646	-0.10483	0.002594	-0.18234	0.18036	0.19562	0.7692	0.18616	-0.069885	-0.014191	0.006866	-0.63141	-0.000153	-0.032806	-0.041046	-0.000458	0.008087
36.439	0.000305	-0.13931	0.085449	0.021515	0.027161	-0.52307	-0.056915	-0.027924	-0.15427	0.22888	0.014954	-0.00351	-0.14389	0.075378	-0.4007	-0.001068	-0.044098	-0.12695	-0.42404	0.099792	0.015564	0.54489	0.39215	-0.081024	0.015869	0.00885	-0.38055	-0.003967	0.027618	-0.12451	0.00061	0.002899
36.44	-0.010223	-0.15671	0.092621	0.047913	0.025635	-0.35355	0.1001	-0.01236	-0.1712	0.37933	-0.003052	-0.016022	0.22781	0.072784	-0.21668	-0.024719	-0.000458	-0.15961	-0.24231	0.027161	0.041809	0.29129	0.39307	-0.052032	0.041809	0.016327	0.04364	-0.004883	0.062561	-0.091705	-0.000458	0.005188
36.441	-0.000916	-0.17731	0.020142	0.039368	0.028992	-0.078583	0.069885	-0.007019	-0.18631	0.34637	0.027466	-0.001221	0.084839	0.1622	0.29205	-0.009613	0.003052	-0.11963	0.12421	0.057068	0.074463	0.06134	0.43442	-0.063324	-0.009003	0.003357	0.063019	-0.004272	0.009308	-0.049591	-0.002441	0.006409
36.442	0.000458	-0.15488	-0.077667	0.022736	0.026398	0.018921	0.046844	-0.004883	-0.15427	0.40832	0.22018	0.004425	-0.39993	-0.12405	0.20538	-0.004425	-0.033264	-0.1384	0.010834	0.071106	-0.035706	-0.060577	0.33844	-0.080414	-0.041046	0.000153	0.17792	-0.005341	-0.2803	-0.087891	-0.004272	0.00412
36.443	0.010071	-0.16525	-0.082855	0.023956	0.018005	0.074768	0.13534	0.004883	-0.10361	0.3363	0.21316	0.002441	-0.20493	-0.065918	0.54779	0.014038	-0.042114	-0.15732	-0.20935	0.016022	-0.081787	-0.14252	0.24277	-0.080719	-0.049896	0.018768	0.21637	-0.005493	-0.42541	-0.053406	-0.004272	0.000458
36.444	0.005798	-0.15152	-0.002289	0.023804	0.025024	0.18951	0.15427	0.004425	-0.12375	0.43655	-0.00061	-0.006714	0.11322	0.21942	0.7312	0.023651	0.010071	-0.13336	-0.15488	-0.012512	-0.068665	-0.32089	0.25116	-0.039215	-0.046387	0.034943	0.25223	-0.001068	-0.39963	-0.009766	-0.002289	0.002136
36.445	0.001831	-0.18509	0.036469	0.013885	0.002289	0.28412	0.077667	0.005493	-0.14358	0.27741	-0.23972	-0.016632	0.25879	0.3421	0.71396	0.023193	0.027008	-0.14816	-0.083466	-0.048828	0.098114	-0.34393	0.21927	-0.045929	-0.032654	-0.010071	0.18677	0.006104	-0.11383	0.026703	0	0.010529
36.446	0.006256	-0.177	0.1059	0.004578	0.008698	0.29892	0.0383	0.009613	-0.15411	-0.48523	-0.077515	0.00473	0.16174	0.073242	-0.45075	0.011597	-0.000305	-0.16129	-0.049591	-0.043182	0.036926	-0.35767	0.14023	-0.003357	-0.017242	-0.037537	-0.20172	0.003357	0.3598	0.088654	-0.001221	0.008087
36.447	0.003357	-0.15366	0.036163	-0.012512	0.010986	0.28839	0.079041	-0.010376	-0.11856	-0.62988	0.007782	0.019073	-0.26032	-0.055084	-0.54749	0.006866	-0.046844	-0.16571	-0.1741	-0.093536	-0.003662	-0.22171	0.25101	0.054016	0.027771	-0.026398	-0.3244	0.00824	0.62439	0.1355	0.006409	0.005188
36.448	0.001831	-0.13962	-0.09201	-0.022736	-0.004272	0.21561	0.094604	-0.00824	-0.12466	-0.43335	0.042267	0.006409	-0.46875	0.21408	-0.84991	-0.005035	-0.034637	-0.16525	-0.19241	-0.10254	0.014191	0.099792	0.37094	0.026398	0.014954	-0.018311	-0.14832	-0.004425	0.4985	0.13794	0.000153	0.001984
36.449	0.005188	-0.1239	-0.10223	-0.031738	0.011139	-0.25436	0.12604	-0.006561	-0.13412	-0.30792	0.009918	0.006256	-0.20767	0.18677	-0.86105	0.010986	-0.013123	-0.13245	-0.14206	-0.082703	0.023041	-0.15167	0.35507	0.063477	0.030823	-0.016022	0.091553	-0.003357	0.16663	0.077209	0.002899	0.007935
36.45	0.005188	-0.068207	0.1149	-0.020447	0.005493	-0.439	0.13947	-0.005951	-0.15457	-0.1651	0.061951	-0.00061	-0.052948	0.2739	-0.28961	-0.006104	-0.00885	-0.18753	-0.11856	-0.055542	0.008087	-0.47821	0.18997	0.000153	0.065918	-0.014954	0.25787	-0.000458	-0.036316	0.004883	-0.00061	0.009155
36.451	0.00885	-0.07431	0.053711	-0.011444	0.022125	-0.28534	0.1532	-0.002747	-0.093994	-0.072937	-0.043335	-0.001526	-0.094299	0.38315	-0.13092	-0.003662	0.019836	-0.19318	-0.20966	-0.052338	0.034485	-0.53741	0.080872	0.035553	0.057373	-0.022278	0.32944	-0.004425	-0.14694	-0.03479	0.005188	-0.031433
36.452	0.00885	-0.035706	-0.049744	-0.006104	0.039215	-0.18784	0.15671	0.006409	-0.081177	-0.059967	-0.098877	0.005646	0.34454	0.21668	0.31265	-0.00351	0.029755	-0.1796	-0.14008	0.00351	0.076141	-0.51712	0.12833	0.014954	0.075836	-0.00946	0.35355	-0.002899	-0.068207	-0.002594	0.000305	-0.033112
36.453	0.016022	-0.055237	-0.1355	-0.003052	0.045776	-0.020447	0.12131	0.00946	-0.12024	-0.051727	-0.10254	-0.003662	0.2475	0.25101	-0.03891	-0.003357	0.0383	-0.18707	-0.38071	0.055542	0.020905	-0.53711	0.18082	-0.004883	0.063629	0.002899	0.18555	-0.004883	0.086365	-0.019531	0.000916	-0.032349
36.454	0.017853	-0.07431	-0.2269	-0.015106	0.056915	0.10437	0.041046	0.012207	-0.12894	-0.027008	-0.12283	0.003204	0.3096	0.15213	-0.079803	0.005951	0.045624	-0.17425	-0.58685	0.03067	-0.16571	-0.53558	0.14862	0.010071	0.076752	0.004425	0.20325	-0.002136	-0.0354	-0.038605	-0.000305	-0.027161
36.455	0.016937	0.002594	-0.18921	0.002136	0.04776	0.18005	-0.082245	0.013733	-0.046997	-0.034027	0.046997	-0.000458	-0.002747	0.22797	-0.00824	0.016479	0.064545	-0.096741	-0.77728	-0.015717	-0.15823	-0.63522	0.084381	0.006409	0.040283	-0.007324	-0.010529	0.001068	-0.103	-0.03418	0.000153	-0.02182
36.456	0.019989	0.071106	0.063477	0.021057	0.037231	-0.15549	-0.2092	0.015564	-0.059052	-0.054626	0.12619	-0.005798	-0.02182	0.31036	-0.13184	0.030212	0.069427	-0.031738	-0.87235	-0.027313	-0.14313	-0.63294	0.094757	0.018158	-0.015259	-0.023041	0.046387	0.004883	-0.12192	-0.13001	-0.001373	-0.031891
36.457	0.022278	0.0383	0.072937	-0.015564	0.022736	0.15839	-0.29633	0.003662	-0.036926	0.023651	0.20996	0.001831	-0.27542	-0.061798	-0.12634	0.003052	0.063019	0.030212	-0.44357	-0.016785	-0.21729	-0.63126	0.078278	-0.036926	-0.042114	-0.041656	0.47058	0.004272	-0.14069	-0.19943	-0.00061	-0.017395
36.458	0.012207	0.008698	0.17273	-0.027618	0.005035	0.27832	-0.11185	-0.001373	0	0.099945	-0.001068	0.002441	0.20706	-0.29373	0.16602	0.002594	0.065918	-0.058899	0.34851	-0.045013	-0.4509	-0.56778	0.23575	0.051117	-0.084229	-0.03479	0.14603	0.002136	-0.092163	-0.12985	-0.003052	-0.016022
36.459	-0.005951	-0.014648	0.1619	0.008087	0.001831	0.11643	0.10208	-0.00946	-0.11948	0.064545	-0.10208	-0.013275	0.45837	-0.12619	0.4332	0.009308	0.11749	-0.15366	0.56427	-0.029755	-0.5719	-0.55573	0.37369	0.16525	-0.063477	-0.032501	-0.082092	-0.000153	-0.16907	-0.079498	-0.00061	-0.012817
36.46	-0.002289	-0.00061	0.03952	0.020142	0.008087	-0.20432	0.099487	-0.000153	-0.21515	0.018768	0.055084	0.003967	-0.067596	0.034943	0.62393	0.017853	0.11368	-0.31937	0.35385	-0.001831	-0.3331	-0.57083	0.30655	0.062714	-0.074158	0.030975	0.050812	-0.002747	-0.19058	-0.11063	-0.000916	-0.008392
36.461	0.003815	0.028687	-0.026855	0.021057	-0.009766	-0.12497	-0.050812	0.016937	-0.20508	0.027466	0.10834	-0.001373	-0.27084	-0.12421	0.35721	0.00061	0.079041	-0.33768	-0.27374	0.064697	0.007782	-0.54336	0.34286	0.077667	-0.090485	0.05249	0.12161	0.005341	-0.075836	-0.18829	0.000458	-0.000305
36.462	0.003967	0.006256	-0.008392	0.007019	0.023956	-0.17914	-0.13825	0.014038	-0.12543	0.037079	0.076904	0.00061	-0.09079	-0.15579	-0.18768	0.008087	0.042267	-0.14816	-0.7782	0.040588	0.32425	-0.59372	0.29022	0.15839	-0.030518	0.018768	0.30197	0.001831	0.12024	-0.20355	0.010986	-0.000916
36.463	0.044403	0.030518	0.022583	0.010529	0.02533	-0.43015	-0.047913	-0.000458	0.031433	0.037231	-0.17166	-0.00473	0.24216	0.046692	-0.24689	0.014954	-0.037537	0.024567	-0.76874	0.011597	0.32989	-0.54108	0.14374	0.10239	0.11353	0.020294	0.57983	-0.003815	0.22583	-0.17838	0	0.003052
36.464	0.079346	0.041656	-0.039368	0.028381	0.042572	-0.27481	0.014954	-0.009766	0.14893	0.025482	-0.16205	-0.003204	-0.001831	0.18219	-0.02243	-0.000763	-0.078125	0.079651	0.12466	-0.027313	0.13107	-0.43823	-0.13458	0.12116	0.12573	0.021057	-0.14374	-0.002594	0.29465	-0.23209	-0.001526	0.001068
36.465	0.012512	0.075531	-0.029755	0.031738	0.079193	0.13977	-0.034637	-0.006866	0.11185	0.058899	-0.090027	-0.002899	-0.60333	0.12543	-0.21622	-0.006256	-0.13473	0.11047	0.58701	-0.050201	0.18875	-0.3833	-0.21927	0.010681	0.16846	0.028687	-1.353	-0.001373	0.34088	-0.24994	-0.004272	0.001526
36.466	0.027466	0.066681	-0.030823	0.022736	0.059357	0.439	0.001831	0.001068	0.045319	0.089111	-0.00061	0.001678	-0.73441	0.007477	-0.003052	0.005188	-0.11826	0.003204	0.58624	-0.046692	0.093536	-0.52002	-0.13916	-0.14938	0.11704	0.009155	-0.48843	-0.002899	0.095062	-0.15366	-0.00061	0.007477
36.467	0.005951	0.082703	-0.016937	0.0177	0.028992	0.51254	0.029602	-0.002594	-0.042572	0.17242	0.17334	0.008392	0.67001	-0.11719	0.271	0.007477	-0.076904	-0.049438	0.47195	-0.03418	-0.21942	-0.40329	-0.064392	-0.27634	0.016327	0.002136	-0.15167	-0.007782	-0.014496	0.000763	-0.00351	0.011139
